<?xml version="1.0" encoding="utf-8"?>
<svg xmlns="http://www.w3.org/2000/svg" width="111mm" height="111mm" viewBox="0 0 111 111" class="segno"><path transform="scale(3)" class="qrline" stroke="#8b0000" d="M4 4.5h7m2 0h6m3 0h1m3 0h7m-29 1h1m5 0h1m7 0h1m2 0h1m2 0h1m1 0h1m5 0h1m-29 1h1m1 0h3m1 0h1m2 0h1m1 0h1m2 0h3m2 0h1m2 0h1m1 0h3m1 0h1m-29 1h1m1 0h3m1 0h1m1 0h1m1 0h4m1 0h3m2 0h1m1 0h1m1 0h3m1 0h1m-29 1h1m1 0h3m1 0h1m1 0h1m2 0h2m1 0h1m1 0h5m1 0h1m1 0h3m1 0h1m-29 1h1m5 0h1m2 0h2m2 0h1m2 0h1m5 0h1m5 0h1m-29 1h7m1 0h1m1 0h1m1 0h1m1 0h1m1 0h1m1 0h1m1 0h1m1 0h7m-20 1h1m1 0h2m1 0h1m1 0h1m2 0h2m-21 1h2m3 0h3m1 0h2m2 0h3m1 0h3m4 0h2m-25 1h2m1 0h2m1 0h2m1 0h2m2 0h2m1 0h4m2 0h2m1 0h2m-28 1h1m1 0h1m1 0h3m1 0h2m3 0h1m1 0h3m4 0h1m-23 1h1m1 0h1m1 0h2m2 0h1m1 0h2m2 0h1m1 0h1m2 0h2m2 0h1m1 0h1m-26 1h3m1 0h1m1 0h2m1 0h2m1 0h1m2 0h1m4 0h1m1 0h2m4 0h1m-29 1h2m3 0h1m1 0h5m1 0h1m1 0h6m1 0h1m1 0h1m2 0h2m-27 1h2m1 0h2m3 0h1m1 0h4m2 0h1m1 0h4m1 0h2m-24 1h1m5 0h1m5 0h1m4 0h5m1 0h1m1 0h1m-27 1h5m1 0h2m1 0h4m2 0h1m1 0h1m3 0h1m1 0h2m-27 1h2m1 0h3m1 0h1m3 0h1m3 0h6m1 0h3m1 0h3m-29 1h5m1 0h4m1 0h1m2 0h2m3 0h2m4 0h1m2 0h1m-29 1h1m4 0h1m3 0h1m2 0h1m5 0h1m1 0h1m1 0h3m-25 1h1m5 0h1m5 0h4m1 0h2m1 0h5m1 0h3m-21 1h1m2 0h1m2 0h2m1 0h2m1 0h1m3 0h2m-26 1h7m1 0h2m2 0h1m2 0h3m1 0h2m1 0h1m1 0h3m-27 1h1m5 0h1m1 0h2m1 0h1m2 0h1m1 0h1m2 0h2m3 0h1m3 0h1m-29 1h1m1 0h3m1 0h1m2 0h1m1 0h1m4 0h1m2 0h7m1 0h2m-29 1h1m1 0h3m1 0h1m2 0h1m1 0h1m2 0h3m1 0h2m1 0h1m1 0h1m1 0h4m-29 1h1m1 0h3m1 0h1m2 0h1m3 0h1m1 0h2m2 0h1m1 0h7m-28 1h1m5 0h1m1 0h3m1 0h1m1 0h1m8 0h1m1 0h2m1 0h1m-29 1h7m1 0h1m3 0h3m2 0h1m1 0h1m2 0h5"/></svg>
